<?xml version="1.0" encoding="utf-8"?>
<svg viewBox="1812.7008056640625 1549.800048828125 176.599609375 120.6998291015625" width="176.599609375" height="120.6998291015625" xmlns="http://www.w3.org/2000/svg"><path fill="#CCCCCC" d="M1850.8,1647.7c-0.2,1.8-0.4,3.5-0.6,5.3c-0.6,3.5-0.9,6.8-1.6,10c-0.4,1.6-0.9,4.7-1.8,5.5&#10;&#9;&#9;&#9;c-2.4,2-8.5,1.5-12.7,1.5c-1.5,0-3.1,0-4.6-0.1c-0.7-0.2-1.2-0.8-2-1c-2.3-0.6-8,0.2-9.4-1.2c0.1-0.4,0.1-0.9,0.2-1.3&#10;&#9;&#9;&#9;c0.4-0.2,0.7-0.5,1.1-0.7c3.2-1.4,7.3-1.7,11.3-2.4c2.2-0.4,8.8-0.1,9.7-1.2c2.2-2.5,2.1-7.5,2.1-12.2c0-1.4,0-2.8,0.1-4.3&#10;&#9;&#9;&#9;c0.6-4.3,1.3-8.5,1.9-12.8c0.3-1.5,1.1-4.1,0.8-5.8c-0.9-5.3-1.2-10.1-2.2-15.2c-0.5-2.3-1-4.6-1.5-6.9c-0.6-3-0.5-6.6-0.5-9.9&#10;&#9;&#9;&#9;c0,0-0.1,0-0.1,0.1c-0.2,0.3-0.4,0.6-0.6,1c0,0.7,0,1.4-0.1,2.1c-1.3,6.2,0.7,11.3,1.8,16.4c0.6,3.2-0.3,6.2-0.8,8.5&#10;&#9;&#9;&#9;c0.1,0.9,0.2,1.7,0.3,2.6c0.1,1.3,0.3,2.6,0.4,3.9c0.3,1.6,0.6,3.1,0.9,4.6c0,0,0,0-0.1,0c0,0,0-0.1,0-0.1&#10;&#9;&#9;&#9;c-1.3-1.9-1.9-4.3-2.5-6.8c-0.1-1.1-0.1-2.2-0.2-3.4c-0.2,3-0.5,5.1,0.3,7.9c0.4,1.4,1.3,3.1,1.3,5c-0.1,0-0.1-0.1-0.2-0.1&#10;&#9;&#9;&#9;c-0.7-1.2-1-2-1.7-3.2c-0.2-2-0.5-1.3-0.7,1.3c0.1,0.8,0.4,2.1,0.1,3c-0.5,0.7-1,1.5-1.5,2.2c-0.4,1.3-0.2,5.1,0.4,6.4&#10;&#9;&#9;&#9;c-0.3-1-2.4-2.2-2-5c0.4-2.7,0.3-4,0.5-6c-0.6-0.9-1.1-1.9-1.7-2.8c0.3,0.8,0.7,1.7,1,2.5c0.5,2-0.8,4.1-1.3,5.7&#10;&#9;&#9;&#9;c0,0-0.1,0-0.1-0.1c-0.4-1.1-1.1-2.1-1.5-3.4c0,0,0,0-0.1,0c0,0,0,0.1,0,0.1c-1.1,1.7-1.4,3.7-2.3,5.7c-0.5,0.7-1.1,1.4-1.6,2.2&#10;&#9;&#9;&#9;c-0.3,0.6-0.6,1.1-0.9,1.7c-0.2-1.4-1.2-3.5-1.2-5.5c0-2,1.8-8.7-0.7-12c0.4,1.4,0.8,2.8,1.1,4.4c0.3,2.1-1.2,5.4-1.5,7.3&#10;&#9;&#9;&#9;c-0.3,2,1.2,3.9,0.4,5.9c0,0,0-0.1,0-0.1c-1.5-1.4-4-6-4-7.6c0-1.6-0.3-2.4-0.2-3.6c0,0,0,0-0.1,0c-0.2,1.3-1,2.9-0.7,4.5&#10;&#9;&#9;&#9;c0.2,1,0.4,2,0.6,3c0,0,0,0-0.1,0c0,0,0-0.1,0-0.1c-1.6-1.6-2.2-5.6-1.6-9.2c0.4-2.1,2.2-3.9,0.3-7.9c0,2.3-0.5,3.7-1,5.5&#10;&#9;&#9;&#9;c-0.8,1.2-0.7,4-0.4,6.4c-0.2-0.8-1.4-1.6-1.5-4c0.2-2,1.3-4.2,1-6.4c-0.4-1.9-0.9-3.8-1.3-5.7c-1.1-6.8,2.3-6.1,0.8-17.4&#10;&#9;&#9;&#9;c-0.5-2.8-1-5-0.3-8.2c1.2-5-3.7-4.5-0.3-13.2c-1,1.2-2,3.8-2.2,5.9c-0.1,1.9,1.5,4.2,1.2,5.9c-1.1,7.6,1.9,13.3-0.8,23.6&#10;&#9;&#9;&#9;c-0.3,1.2,0.2,3.6,0.3,5.3c-0.2-0.9-1.7-4.3-0.5-12.4c-0.1-0.6-0.3-10.9-0.8-14.6c-0.4-3.7-1.9-7.2-1.4-10.1c0.2-1,0.4-2,0.6-2.9&#10;&#9;&#9;&#9;c-0.1-2.8-0.3-5.6-0.4-8.3c-0.1-3.3,1.7-11.8,8-16.7c1.9-1.5,2.6-2.5,5-2.5c2.5,0,5.2-0.3,6.2,1.2c1.4-0.6,5.3-3.8,7.3-1.8&#10;&#9;&#9;&#9;c-0.1,0.6-0.2,1.1-0.3,1.7c0.9,0.2,1.7,0.5,2.5,0.7c0.3,0.3,0.5,0.7,0.8,1c0,0,0.1-0.1,0.1-0.1c0.2-0.1,0.5-0.3,0.7-0.4&#10;&#9;&#9;&#9;c0.5,0.1,0.6,0.4,1,0.6c1.3,0.6,2.7,0.2,3.4,1.3c1,1.9-0.4,3.7-0.8,5.3c-0.5,2,0.7,4.9,1.2,6.4c0.7,2.2,3.2,5.6,4.9,6.9&#10;&#9;&#9;&#9;c0.7,0.5,1.7,0.7,2.4,1.1c0.5,0.3,1,0.6,1.5,1c1.2,0.1,2.5,0.2,3.7,0.3c1.7,0.4,3.2,1.1,5,1.5c0.8,0.1,1.5,0.3,2.3,0.4&#10;&#9;&#9;&#9;c1.6,0.3,3.6-0.3,4.9,0.3c-0.6-0.6-1.2-1.3-1.8-1.9c-0.7,0-2.1,0.2-2.5,0c-0.5-0.4-1-0.8-1.5-1.3c-1.5-0.9-3-1.7-4.5-2.5&#10;&#9;&#9;&#9;c0.5,1.2,1,2.2,1.7,3.2c-1.2-0.5-2.3-1.7-2.9-2.8c0,0-0.1,0-0.1,0.1c0,0.2-0.1,0.4-0.1,0.6c-0.1,0-0.1,0-0.2-0.1&#10;&#9;&#9;&#9;c-0.6-0.7-1.6-1.1-2.2-1.8c-0.4-0.7-0.8-1.4-1.2-2.1c-0.2,0.8-0.3,1.7-0.5,2.5c0,0,0,0-0.1,0c-0.1-1-0.2-2-0.3-3.1&#10;&#9;&#9;&#9;c0.3-1.2,1-2.7,0.6-4.5c-0.2-0.9-1.5-2.9-1.3-3.9c0.6-3.5,2.9-7.2,4.7-9.7c1.2-0.9,2.4-1.8,3.6-2.7c1.6-1.4,4.6-3.9,8.1-3.2&#10;&#9;&#9;&#9;c5.7,1.1,10.7,2.9,16.8,3.5c0,0-0.1,0-0.1,0.1c-0.5,0.2-1,0.4-1.5,0.6c0,0,0,0,0,0.1c1.5,0.5,3.4,1.7,4.1,3c0,0,0,0-0.1,0.1&#10;&#9;&#9;&#9;c-0.7-0.4-1.4-1.1-2.2-1.3c0.5,0.7,0.9,1,1.3,1.9c-0.9-0.2-1.8-0.3-2.7-0.5c0,0,0,0,0,0.1c0.4,1.2,1.6,2.3,2.9,2.6c1,0,2,0,3.1,0&#10;&#9;&#9;&#9;c0.7,0,1.4,0,2.2,0.1c1.6-0.1,3.1-0.3,4.7-0.4c0.9-0.3,1.8-0.5,2.7-0.8c1.4-0.3,3.3,0,4.4,0.3c1.3,0.2,2.6,0.3,3.9,0.5&#10;&#9;&#9;&#9;c2.6,0.8,5.2,1.6,7.8,2.4c1,0.5,2,1,3,1.5c7.9,3.5,15.3,10.9,20.4,17.2c1.7,2.3,3.4,4.6,5.1,6.9c0.6,0.8,1.3,2.6,2.2,3&#10;&#9;&#9;&#9;c1.5-0.6,3.1-1.2,4.6-1.8c3.6-0.9,7.8-0.2,10,1.4c0.7,0.5,2.2,3.1,2.5,4c0.5,1.5,0.4,3.4,0.4,5.2c0,1.3,0,2.5,0,3.8&#10;&#9;&#9;&#9;c-1,5.4-2.1,10.7-3.2,15.7c-0.6,2.4-0.4,4.9-0.8,7.6c-0.6,3.6-0.5,9.4,0.7,12.3c0.5,0.7,1,1.5,1.5,2.2c3.1,5,7.7,5.7,14.5,6.9&#10;&#9;&#9;&#9;c2.9,0.5,6.8-0.6,8,1.6c0.2,0.4,0.4,0.6,0.2,1c-0.5,0.4-1,0.7-1.5,1.1c-3.1,1.2-7.2,0.3-10.9,0.9c-1,0-2,0.1-3.1,0.1&#10;&#9;&#9;&#9;c-2.7-0.5-5.4-1.2-8-1.7c-1.2,0.1-2.5,0.1-3.7,0.2c-2,0.3-4.3-0.1-6,0.2c-1.2,0.2-1.9-0.9-3.2-0.6c-5.8,1-11.8,1.6-17.1,3.2&#10;&#9;&#9;&#9;c-5.9,1.8-11.8,3.6-17.6,5.4c-3.6,0.8-7.1,1.5-10.7,2.3c-6.5,1.7-19.4,2.3-22.7-2.5c0.2-1.9,0.5-4.6,1.3-6&#10;&#9;&#9;&#9;c0.4-0.8,2.1-2.5,1.8-3.4c-0.5-0.2-1.4-0.7-1.6-1.1c-0.6-1.3-0.6-4.6,0-5.9c1.5-3.2,7.5-7,10.6-9c-1.4-1.8-4.5-3-4.5-6.1&#10;&#9;&#9;&#9;c-3.1-1.6-6.3-3.1-9.4-4.7c-4.6-2.3-9.8-3.9-14.8-5.9c-2.9-1.2-5.8-2.4-8.7-3.6c-0.2,2.2-0.8,5.4-0.3,8.2c0,1.9,0.1,3.8,0.1,5.7&#10;&#9;&#9;&#9;c-0.3,1.1-0.7,2.2-1,3.4c-0.9,3.1-1.2,7.5-1,11.2c2.1-1,2.9,1.5,1.9,3.1C1857.9,1647.9,1854.4,1647.8,1850.8,1647.7z&#10;&#9;&#9;&#9; M1922.2,1577.1c0,0-0.1,0-0.1,0.1c0,0,0,0.1,0.1,0.1c1.7,1.3,3.5,2.7,5.2,4c-0.7-0.5,5.9,3.6,10.2,9c2.1,1.8,4.1,3.6,6.2,5.3&#10;&#9;&#9;&#9;c3,2.3,7.2,4.4,8,8.7c0.7,4.2-4.2,9.7-8.3,14.6c-10.5,7.5-12.1,8.2-19.9,10.4c-2,1-3.5,2.9-5.6,3.8c-3.5,1-6.9,2.1-10.3,3.1&#10;&#9;&#9;&#9;c-1.2,0.5-2.4,2.1-4.4,1.8c-0.8-0.3-1.8-0.1-2.5-0.3c-0.6-0.1-0.9-0.6-1.5-0.6c-0.7-0.6-1.4-1.1-2.1-1.7c0.3,1,1.1,1.9,1.8,2.4&#10;&#9;&#9;&#9;c0.9,0.5,4.4,1.1,5.7,0.6c1.2-0.4,2.1-1.2,2.9-1.6c3.4-1,7.8-2,10.3-2.9c2.5-0.9,5.1-3.1,5.9-3.7c2.9-1.3,6.4-1.6,9-3.2&#10;&#9;&#9;&#9;c3.8-2.5,10-6.4,11.3-7.6c1.3-1.2,2.8-3.6,4.3-5.4c7.6-9.9,2.1-13.4-1.1-16.3c-1.8-1.2-3.5-2.5-5.2-3.8c-2.1-1.7-4.4-3.7-6-5.8&#10;&#9;&#9;&#9;c-1-1-1.9-2.1-2.9-3.1c-2.1-1.7-4.2-3.3-6.6-4.8C1925.9,1579.6,1922.8,1577.2,1922.2,1577.1z M1893.2,1578&#10;&#9;&#9;&#9;c0.1,3.6-0.9,6.8-4.1,7.5c-1.7,0.4-2.5-0.8-4.3-0.4c-0.5,0.1-1.1,0.4-1.5,0.4c-0.2-0.4-0.3-0.8-0.3-1.5c-0.3,0-0.5,0-0.8,0.1&#10;&#9;&#9;&#9;c-0.1,0.4-0.2,0.7-0.3,1.1c-1.5,0.1-2-0.7-3.4-0.8c-0.2,1.1-0.6,1.6-1.4,2c0.3,0.3,0.7,0.7,1,1c0.3,0.7,0.5,1.4,0.8,2&#10;&#9;&#9;&#9;c0.1,1,0.3,1.9,0.4,2.9c0.7,0.4,1.3,0.9,2,1.3c1.4,1,2.7,2.5,3.8,3.9c1.1,1.6,2.1,3.2,3.2,4.8c2.2,1.9,4.5,1.3,7.7,2.2&#10;&#9;&#9;&#9;c3.2,0.9,6.5,1.9,9.5,3.1c1.6,0.6,3.2,1.1,4.8,1.7c0.3-0.9,2-1.8,3.1-2.9c1.1-1.2,1.4-3.5,2-4.3c-0.3-1.8-2.5-1.5-3.8-2.4&#10;&#9;&#9;&#9;c-4.2-2.1-7.6-9.8-9.3-12c-0.5-1.3-1.4-2.7-1.9-4c0.1,0.3-1.7-3.7-4.5-5.7C1895.2,1578,1894.2,1578,1893.2,1578z M1918.1,1596.7&#10;&#9;&#9;&#9;c1.8,1.5,3.3,3.4,5.5,4.5c1.3,0.6,5.6,2,6.3,2.8c2.1,2.5-1.3,5.6-2.4,7.1c-0.9,1.1-2.6,3.9-2.8,4.3c-1.3,1.8-3.1,3.4-4.5,5.1&#10;&#9;&#9;&#9;c-1,1.1-4.2,3.5-5,3.9c-0.8,0.4-1.5,0.9-2.3,1.3c-0.9,0.2-2.2-0.8-2.9-1c-2.1-0.6-4-0.7-5.9-1.5c-0.7-0.5-2.2-1-2.9-1.5&#10;&#9;&#9;&#9;c-1-0.5-3.5-1.6-6.2-0.1c-0.3,0.7-0.2,1.5,0.3,2.4c0.5,1.3,4.3,3.1,6,3.2c0,0.4,0.2,1,0.2,1.4c-2.2,0-5.3-1.1-7.1-1.8&#10;&#9;&#9;&#9;c-0.5-0.2-1.8-1-2.2-0.8c-0.2,0.1-0.4,0.2-0.6,0.3c0,0.2,0,0.3,0.1,0.5c1.1-0.6,2.4,0.4,3.3,0.8c2,0.9,4.4,1.5,6.9,1.3&#10;&#9;&#9;&#9;c0.1-0.2,0.1-0.3,0.2-0.5c-0.1-0.5-0.3-1.1-0.4-1.6c-2.7-0.6-6.3-1.7-6.5-4.8c4.7-2,7,0.9,10.8,2.2c1,0.2,1.9,0.3,2.9,0.5&#10;&#9;&#9;&#9;c1.5,0.4,2.8,0.9,4.1,1.5c4.5-2.2,9.1-6.4,11.8-10.4c1.1-1.6,2-3.2,3.1-4.7c1.1-1.4,4.7-4.4,2.9-7.3c-0.5-0.4-1.7-0.9-2.2-1.3&#10;&#9;&#9;&#9;c-1.9-0.7-3.2-1.4-5.1-2c-0.9-0.6-1.7-1.2-2.6-1.8c-2.2-1.7-6.5-7.6-7.4-5.9C1914.9,1593.1,1917,1595.8,1918.1,1596.7z&#10;&#9;&#9;&#9; M1926.6,1603.3c-1.9,1.3-5.4,4.1-5.7,4.5c-1.1,0.8-2.3,1.8-3.4,2.6c-1.4,0.9-3.6,1.2-4.6,2.4c1.9-0.7,4.2-1.3,5.9-2.4&#10;&#9;&#9;&#9;c3.3-2.6,5.9-4.6,8.8-6.8c0,0,0-0.1,0-0.1C1927.3,1603.3,1927,1603.3,1926.6,1603.3z M1953.8,1606.8c-0.5,1.1-0.9,2.2-1.4,3.2&#10;&#9;&#9;&#9;c-0.5,1.2-1,2.5-1.5,3.7c-0.5,1.7-0.3,3.2-0.6,5.2c0,1,0,2-0.1,2.9c1.1,6,2.5,11.7,3.7,17.4c-0.1,1.1-0.1,2.2-0.2,3.2&#10;&#9;&#9;&#9;c-0.3,1.8,0.3,7.5,1,8.3c-0.3-1.5-0.5-6.2-0.4-8.1c0.2-3.8,0.4-3.7-2.3-14.4c-0.6-2.4-1.6-5.9-1.1-9c0-1.1,0-2.2,0.1-3.2&#10;&#9;&#9;&#9;c0.7-3.4,1.7-6.4,3-9.2C1953.9,1606.8,1953.9,1606.8,1953.8,1606.8z M1816.3,1624c0,0.1,0,0.2,0,0.3&#10;&#9;&#9;&#9;C1816.3,1624.2,1816.3,1624.1,1816.3,1624z M1822.1,1635.7c0,0.1,0,0.1,0,0.2C1822.1,1635.9,1822.1,1635.8,1822.1,1635.7&#10;&#9;&#9;&#9;C1822.1,1635.7,1822.1,1635.7,1822.1,1635.7z M1818.3,1636.5c0,0.1,0,0.2,0,0.3C1818.3,1636.7,1818.3,1636.6,1818.3,1636.5z&#10;&#9;&#9;&#9; M1903,1639.2c-1.3,0.6-2.6,1.2-3.9,1.8c-3.9,2.4-7.7,5.4-10.4,9c0,0.1,0.1,0.1,0.1,0.2c0.3-0.3,0.6-0.5,0.8-0.8&#10;&#9;&#9;&#9;c0.6-1.3,2.8-3,3.9-3.9c3.2-2.3,6.5-5.2,10.8-6.4c0,0,0,0,0-0.1C1903.9,1639.2,1903.5,1639.2,1903,1639.2z" transform="matrix(1, 0, 0, 1, 0, 0)"/></svg>